<svg width="508" height="508" viewBox="0 0 508 508" fill="none" xmlns="http://www.w3.org/2000/svg">
<g clip-path="url(#clip0_105_3)" filter="url(#filter0_d_105_3)">
<rect width="500" height="500" transform="translate(4)" fill="white" fill-opacity="0.1"/>
<ellipse cx="254" cy="249.5" rx="233" ry="234.5" fill="url(#paint0_radial_105_3)"/>
<path d="M130.5 166.5C133.5 151.5 138.5 147 147.5 136.5" stroke="#634710" stroke-width="6"/>
<path d="M252 238C276.5 311.5 236.487 365.505 134.5 356.5" stroke="#AA8239" stroke-width="4" stroke-linecap="round"/>
<path fill-rule="evenodd" clip-rule="evenodd" d="M358.238 289.023C380.467 267.574 394 239.163 394 208C394 141.174 331.768 87 255 87C202.701 87 157.148 112.143 133.423 149.301C132.676 154.168 132.217 159.116 132.06 164.131C151.902 122.66 199.044 93 255 93C329.262 93 388 145.242 388 208C388 243.164 369.559 275.027 340.28 296.248C346.465 294.175 352.461 291.758 358.238 289.023Z" fill="url(#paint1_radial_105_3)"/>
<path d="M136 153.5C120.023 183.534 118.082 222.085 136 357" stroke="url(#paint2_linear_105_3)" stroke-opacity="0.95" stroke-width="8"/>
<path d="M130 167C137.704 150.785 141.867 143.584 149 134" stroke="#5E430D" stroke-width="6"/>
<path d="M253 241.5C261.315 270.693 264.351 293.419 253 399.5" stroke="url(#paint3_linear_105_3)" stroke-opacity="0.8" stroke-width="4"/>
<path d="M389 237C348.279 292.169 339.4 339.552 341.221 400" stroke="url(#paint4_linear_105_3)" stroke-opacity="0.8" stroke-width="4" stroke-linecap="round"/>
<path d="M340.182 400.069C340.22 401.173 341.146 402.037 342.25 401.999C343.354 401.961 344.218 401.035 344.179 399.931L340.182 400.069ZM344.179 399.931C342.024 337.638 342.215 299.377 349.992 213.18L346.008 212.82C338.216 299.189 338.021 337.616 340.182 400.069L344.179 399.931Z" fill="url(#paint5_linear_105_3)" fill-opacity="0.8"/>
<g filter="url(#filter1_i_105_3)">
<path d="M210.4 155.92C212.133 155.92 213.6 156.16 214.8 156.64C214.96 156.72 215.067 156.8 215.12 156.88C215.2 156.96 215.213 157.067 215.16 157.2L214.68 159.04C214.627 159.2 214.56 159.293 214.48 159.32C214.427 159.347 214.32 159.333 214.16 159.28C213.68 159.12 213.16 159.013 212.6 158.96C212.04 158.88 211.547 158.84 211.12 158.84C210.693 158.84 210.28 158.88 209.88 158.96C209.48 159.013 209.12 159.08 208.8 159.16C208.507 159.24 208.293 159.32 208.16 159.4C208.027 159.48 207.893 159.573 207.76 159.68C207.627 159.787 207.56 160.027 207.56 160.4V174.44C207.56 174.68 207.52 174.84 207.44 174.92C207.36 174.973 207.24 175 207.08 175H204.36C204.28 175 204.2 174.973 204.12 174.92C204.04 174.867 204 174.733 204 174.52V158.28C204 157.88 204.053 157.613 204.16 157.48C204.267 157.347 204.44 157.227 204.68 157.12C205.453 156.747 206.373 156.453 207.44 156.24C208.533 156.027 209.52 155.92 210.4 155.92ZM216.723 165.52C216.723 164.267 216.843 163.067 217.083 161.92C217.35 160.773 217.776 159.747 218.363 158.84C218.976 157.907 219.803 157.187 220.843 156.68C221.883 156.147 223.216 155.88 224.843 155.88C226.523 155.88 227.856 156.12 228.843 156.6C229.856 157.08 230.616 157.72 231.123 158.52C231.656 159.32 232.003 160.2 232.163 161.16C232.323 162.12 232.403 163.08 232.403 164.04C232.403 165.08 232.296 165.747 232.083 166.04C231.87 166.307 231.55 166.44 231.123 166.44H220.683C220.576 166.44 220.483 166.467 220.403 166.52C220.323 166.573 220.283 166.72 220.283 166.96C220.31 168.053 220.51 169.027 220.883 169.88C221.283 170.733 221.87 171.413 222.643 171.92C223.443 172.4 224.43 172.64 225.603 172.64C226.51 172.64 227.416 172.52 228.323 172.28C229.23 172.013 229.95 171.733 230.483 171.44C230.75 171.307 230.95 171.227 231.083 171.2C231.243 171.173 231.39 171.307 231.523 171.6L232.163 172.8C232.27 172.987 232.296 173.133 232.243 173.24C232.19 173.32 232.056 173.427 231.843 173.56C230.963 174.12 229.896 174.547 228.643 174.84C227.416 175.107 226.163 175.24 224.883 175.24C223.203 175.24 221.83 175 220.763 174.52C219.723 174.013 218.896 173.32 218.283 172.44C217.696 171.533 217.283 170.493 217.043 169.32C216.83 168.147 216.723 166.88 216.723 165.52ZM228.803 163.48C228.803 162.573 228.683 161.76 228.443 161.04C228.23 160.32 227.83 159.747 227.243 159.32C226.683 158.867 225.856 158.64 224.763 158.64C223.963 158.64 223.283 158.8 222.723 159.12C222.163 159.413 221.71 159.8 221.363 160.28C221.043 160.76 220.803 161.293 220.643 161.88C220.483 162.44 220.376 162.987 220.323 163.52C220.296 163.84 220.296 164.053 220.323 164.16C220.376 164.24 220.51 164.28 220.723 164.28H228.203C228.443 164.28 228.603 164.24 228.683 164.16C228.79 164.08 228.83 163.853 228.803 163.48ZM242.719 175C241.012 175 239.745 174.64 238.919 173.92C238.092 173.2 237.559 172.187 237.319 170.88C237.079 169.76 236.945 168.587 236.919 167.36C236.919 166.133 236.919 164.88 236.919 163.6C236.919 162.747 236.932 161.947 236.959 161.2C236.985 160.453 237.012 159.667 237.039 158.84C237.039 158.6 236.932 158.48 236.719 158.48H234.799C234.665 158.48 234.572 158.453 234.519 158.4C234.465 158.347 234.439 158.24 234.439 158.08V156.52C234.439 156.36 234.465 156.253 234.519 156.2C234.572 156.147 234.679 156.12 234.839 156.12H236.799C236.959 156.12 237.052 156.08 237.079 156C237.132 155.92 237.159 155.787 237.159 155.6L237.359 152.32C237.359 152.08 237.465 151.96 237.679 151.96H240.439C240.545 151.96 240.639 152 240.719 152.08C240.825 152.133 240.865 152.213 240.839 152.32L240.679 155.6C240.652 155.813 240.652 155.96 240.679 156.04C240.732 156.093 240.825 156.12 240.959 156.12H245.239C245.425 156.12 245.532 156.147 245.559 156.2C245.612 156.227 245.639 156.347 245.639 156.56V158.08C245.639 158.213 245.599 158.32 245.519 158.4C245.465 158.453 245.359 158.48 245.199 158.48H240.959C240.825 158.48 240.719 158.52 240.639 158.6C240.585 158.653 240.559 158.773 240.559 158.96C240.532 159.76 240.505 160.573 240.479 161.4C240.452 162.227 240.425 163.067 240.399 163.92C240.399 164.96 240.412 166.027 240.439 167.12C240.465 168.187 240.599 169.213 240.839 170.2C240.999 170.893 241.265 171.413 241.639 171.76C242.039 172.08 242.639 172.24 243.439 172.24C243.785 172.24 244.132 172.2 244.479 172.12C244.852 172.013 245.185 171.907 245.479 171.8C245.719 171.667 245.865 171.627 245.919 171.68C245.999 171.707 246.065 171.813 246.119 172L246.639 173.68C246.719 173.84 246.692 173.973 246.559 174.08C246.452 174.187 246.239 174.307 245.919 174.44C245.625 174.547 245.279 174.653 244.879 174.76C244.479 174.84 244.079 174.907 243.679 174.96C243.305 174.987 242.985 175 242.719 175ZM257.116 175.16C255.036 175.16 253.423 174.76 252.276 173.96C251.156 173.16 250.37 172.08 249.916 170.72C249.49 169.333 249.276 167.827 249.276 166.2C249.276 165.027 249.29 163.853 249.316 162.68C249.37 161.507 249.436 160.4 249.516 159.36C249.596 158.32 249.663 157.453 249.716 156.76C249.743 156.44 249.796 156.253 249.876 156.2C249.983 156.147 250.17 156.12 250.436 156.12H252.636C252.903 156.12 253.09 156.133 253.196 156.16C253.303 156.187 253.33 156.36 253.276 156.68C253.276 156.84 253.25 157.253 253.196 157.92C253.17 158.587 253.13 159.4 253.076 160.36C253.023 161.32 252.983 162.333 252.956 163.4C252.93 164.44 252.916 165.427 252.916 166.36C252.916 168.253 253.236 169.72 253.876 170.76C254.543 171.773 255.636 172.28 257.156 172.28C257.343 172.28 257.623 172.267 257.996 172.24C258.37 172.213 258.756 172.16 259.156 172.08C259.556 172 259.89 171.88 260.156 171.72C260.423 171.56 260.556 171.347 260.556 171.08V156.6C260.556 156.493 260.57 156.387 260.596 156.28C260.623 156.173 260.69 156.12 260.796 156.12H263.676C263.756 156.12 263.836 156.147 263.916 156.2C264.023 156.227 264.076 156.32 264.076 156.48V173.04C264.076 173.36 263.983 173.6 263.796 173.76C263.636 173.893 263.29 174.053 262.756 174.24C262.49 174.32 262.036 174.44 261.396 174.6C260.756 174.733 260.05 174.867 259.276 175C258.503 175.107 257.783 175.16 257.116 175.16ZM274.892 155.92C276.626 155.92 278.092 156.16 279.292 156.64C279.452 156.72 279.559 156.8 279.612 156.88C279.692 156.96 279.706 157.067 279.652 157.2L279.172 159.04C279.119 159.2 279.052 159.293 278.972 159.32C278.919 159.347 278.812 159.333 278.652 159.28C278.172 159.12 277.652 159.013 277.092 158.96C276.532 158.88 276.039 158.84 275.612 158.84C275.186 158.84 274.772 158.88 274.372 158.96C273.972 159.013 273.612 159.08 273.292 159.16C272.999 159.24 272.786 159.32 272.652 159.4C272.519 159.48 272.386 159.573 272.252 159.68C272.119 159.787 272.052 160.027 272.052 160.4V174.44C272.052 174.68 272.012 174.84 271.932 174.92C271.852 174.973 271.732 175 271.572 175H268.852C268.772 175 268.692 174.973 268.612 174.92C268.532 174.867 268.492 174.733 268.492 174.52V158.28C268.492 157.88 268.546 157.613 268.652 157.48C268.759 157.347 268.932 157.227 269.172 157.12C269.946 156.747 270.866 156.453 271.932 156.24C273.026 156.027 274.012 155.92 274.892 155.92ZM282.535 175C282.242 175 282.095 174.88 282.095 174.64C282.095 171.813 282.095 169 282.095 166.2C282.095 163.373 282.095 160.56 282.095 157.76C282.095 157.547 282.162 157.387 282.295 157.28C282.455 157.147 282.749 157.013 283.175 156.88C283.522 156.773 284.029 156.64 284.695 156.48C285.389 156.32 286.122 156.187 286.895 156.08C287.695 155.947 288.429 155.88 289.095 155.88C291.202 155.88 292.815 156.28 293.935 157.08C295.055 157.88 295.829 158.973 296.255 160.36C296.682 161.72 296.895 163.227 296.895 164.88C296.895 166.053 296.869 167.24 296.815 168.44C296.789 169.613 296.735 170.72 296.655 171.76C296.602 172.773 296.535 173.64 296.455 174.36C296.429 174.68 296.375 174.867 296.295 174.92C296.215 174.973 296.042 175 295.775 175H293.535C293.269 175 293.082 174.973 292.975 174.92C292.895 174.84 292.869 174.68 292.895 174.44C292.895 174.28 292.922 173.853 292.975 173.16C293.029 172.44 293.082 171.587 293.135 170.6C293.189 169.613 293.229 168.613 293.255 167.6C293.282 166.56 293.295 165.64 293.295 164.84C293.295 163.427 293.135 162.28 292.815 161.4C292.522 160.493 292.055 159.84 291.415 159.44C290.802 159.013 290.002 158.8 289.015 158.8C288.509 158.8 288.029 158.84 287.575 158.92C287.122 159 286.709 159.107 286.335 159.24C286.149 159.267 285.989 159.36 285.855 159.52C285.722 159.653 285.655 159.907 285.655 160.28C285.655 161.693 285.655 163.2 285.655 164.8C285.655 166.373 285.655 168 285.655 169.68C285.655 171.333 285.655 172.987 285.655 174.64C285.655 174.88 285.549 175 285.335 175H282.535ZM210.4 200.92C212.133 200.92 213.6 201.16 214.8 201.64C214.96 201.72 215.067 201.8 215.12 201.88C215.2 201.96 215.213 202.067 215.16 202.2L214.68 204.04C214.627 204.2 214.56 204.293 214.48 204.32C214.427 204.347 214.32 204.333 214.16 204.28C213.68 204.12 213.16 204.013 212.6 203.96C212.04 203.88 211.547 203.84 211.12 203.84C210.693 203.84 210.28 203.88 209.88 203.96C209.48 204.013 209.12 204.08 208.8 204.16C208.507 204.24 208.293 204.32 208.16 204.4C208.027 204.48 207.893 204.573 207.76 204.68C207.627 204.787 207.56 205.027 207.56 205.4V219.44C207.56 219.68 207.52 219.84 207.44 219.92C207.36 219.973 207.24 220 207.08 220H204.36C204.28 220 204.2 219.973 204.12 219.92C204.04 219.867 204 219.733 204 219.52V203.28C204 202.88 204.053 202.613 204.16 202.48C204.267 202.347 204.44 202.227 204.68 202.12C205.453 201.747 206.373 201.453 207.44 201.24C208.533 201.027 209.52 200.92 210.4 200.92ZM216.723 210.52C216.723 209.267 216.843 208.067 217.083 206.92C217.35 205.773 217.776 204.747 218.363 203.84C218.976 202.907 219.803 202.187 220.843 201.68C221.883 201.147 223.216 200.88 224.843 200.88C226.523 200.88 227.856 201.12 228.843 201.6C229.856 202.08 230.616 202.72 231.123 203.52C231.656 204.32 232.003 205.2 232.163 206.16C232.323 207.12 232.403 208.08 232.403 209.04C232.403 210.08 232.296 210.747 232.083 211.04C231.87 211.307 231.55 211.44 231.123 211.44H220.683C220.576 211.44 220.483 211.467 220.403 211.52C220.323 211.573 220.283 211.72 220.283 211.96C220.31 213.053 220.51 214.027 220.883 214.88C221.283 215.733 221.87 216.413 222.643 216.92C223.443 217.4 224.43 217.64 225.603 217.64C226.51 217.64 227.416 217.52 228.323 217.28C229.23 217.013 229.95 216.733 230.483 216.44C230.75 216.307 230.95 216.227 231.083 216.2C231.243 216.173 231.39 216.307 231.523 216.6L232.163 217.8C232.27 217.987 232.296 218.133 232.243 218.24C232.19 218.32 232.056 218.427 231.843 218.56C230.963 219.12 229.896 219.547 228.643 219.84C227.416 220.107 226.163 220.24 224.883 220.24C223.203 220.24 221.83 220 220.763 219.52C219.723 219.013 218.896 218.32 218.283 217.44C217.696 216.533 217.283 215.493 217.043 214.32C216.83 213.147 216.723 211.88 216.723 210.52ZM228.803 208.48C228.803 207.573 228.683 206.76 228.443 206.04C228.23 205.32 227.83 204.747 227.243 204.32C226.683 203.867 225.856 203.64 224.763 203.64C223.963 203.64 223.283 203.8 222.723 204.12C222.163 204.413 221.71 204.8 221.363 205.28C221.043 205.76 220.803 206.293 220.643 206.88C220.483 207.44 220.376 207.987 220.323 208.52C220.296 208.84 220.296 209.053 220.323 209.16C220.376 209.24 220.51 209.28 220.723 209.28H228.203C228.443 209.28 228.603 209.24 228.683 209.16C228.79 209.08 228.83 208.853 228.803 208.48ZM235.359 216.28C235.385 216.093 235.452 216.013 235.559 216.04C235.692 216.067 235.825 216.12 235.959 216.2C236.385 216.44 236.919 216.653 237.559 216.84C238.199 217.027 238.839 217.173 239.479 217.28C240.145 217.387 240.719 217.44 241.199 217.44C241.892 217.44 242.532 217.347 243.119 217.16C243.705 216.947 244.185 216.613 244.559 216.16C244.932 215.707 245.119 215.133 245.119 214.44C245.119 213.587 244.785 212.973 244.119 212.6C243.452 212.2 242.345 211.893 240.799 211.68C239.812 211.52 238.879 211.267 237.999 210.92C237.145 210.573 236.452 210.053 235.919 209.36C235.385 208.667 235.119 207.747 235.119 206.6C235.119 205.347 235.439 204.307 236.079 203.48C236.745 202.627 237.599 201.987 238.639 201.56C239.705 201.133 240.839 200.92 242.039 200.92C242.999 200.92 244.039 201.053 245.159 201.32C246.305 201.587 247.212 201.947 247.879 202.4C248.039 202.507 248.119 202.6 248.119 202.68C248.145 202.733 248.132 202.827 248.079 202.96L247.439 204.84C247.359 205.107 247.172 205.16 246.879 205C246.345 204.653 245.625 204.347 244.719 204.08C243.812 203.787 242.919 203.64 242.039 203.64C241.025 203.64 240.185 203.893 239.519 204.4C238.879 204.907 238.559 205.533 238.559 206.28C238.559 207.107 238.892 207.693 239.559 208.04C240.252 208.387 241.225 208.653 242.479 208.84C243.305 208.973 244.065 209.147 244.759 209.36C245.479 209.547 246.119 209.827 246.679 210.2C247.239 210.573 247.665 211.067 247.959 211.68C248.279 212.293 248.439 213.093 248.439 214.08C248.439 215.253 248.212 216.227 247.759 217C247.332 217.773 246.759 218.4 246.039 218.88C245.319 219.36 244.519 219.707 243.639 219.92C242.785 220.107 241.932 220.2 241.079 220.2C240.652 220.2 240.065 220.147 239.319 220.04C238.599 219.933 237.865 219.773 237.119 219.56C236.372 219.32 235.745 219.04 235.239 218.72C235.132 218.64 235.052 218.573 234.999 218.52C234.945 218.44 234.932 218.347 234.959 218.24L235.359 216.28ZM259.655 220.16C257.575 220.16 255.962 219.76 254.815 218.96C253.695 218.16 252.909 217.08 252.455 215.72C252.029 214.333 251.815 212.827 251.815 211.2C251.815 210.027 251.829 208.853 251.855 207.68C251.909 206.507 251.975 205.4 252.055 204.36C252.135 203.32 252.202 202.453 252.255 201.76C252.282 201.44 252.335 201.253 252.415 201.2C252.522 201.147 252.709 201.12 252.975 201.12H255.175C255.442 201.12 255.629 201.133 255.735 201.16C255.842 201.187 255.869 201.36 255.815 201.68C255.815 201.84 255.789 202.253 255.735 202.92C255.709 203.587 255.669 204.4 255.615 205.36C255.562 206.32 255.522 207.333 255.495 208.4C255.469 209.44 255.455 210.427 255.455 211.36C255.455 213.253 255.775 214.72 256.415 215.76C257.082 216.773 258.175 217.28 259.695 217.28C259.882 217.28 260.162 217.267 260.535 217.24C260.909 217.213 261.295 217.16 261.695 217.08C262.095 217 262.429 216.88 262.695 216.72C262.962 216.56 263.095 216.347 263.095 216.08V201.6C263.095 201.493 263.109 201.387 263.135 201.28C263.162 201.173 263.229 201.12 263.335 201.12H266.215C266.295 201.12 266.375 201.147 266.455 201.2C266.562 201.227 266.615 201.32 266.615 201.48V218.04C266.615 218.36 266.522 218.6 266.335 218.76C266.175 218.893 265.829 219.053 265.295 219.24C265.029 219.32 264.575 219.44 263.935 219.6C263.295 219.733 262.589 219.867 261.815 220C261.042 220.107 260.322 220.16 259.655 220.16ZM271.431 219.64V192.04C271.431 191.8 271.565 191.68 271.831 191.68H274.591C274.858 191.68 274.991 191.8 274.991 192.04V219.64C274.991 219.88 274.858 220 274.591 220H271.831C271.565 220 271.431 219.88 271.431 219.64ZM286.43 220C284.723 220 283.456 219.64 282.63 218.92C281.803 218.2 281.27 217.187 281.03 215.88C280.79 214.76 280.656 213.587 280.63 212.36C280.63 211.133 280.63 209.88 280.63 208.6C280.63 207.747 280.643 206.947 280.67 206.2C280.696 205.453 280.723 204.667 280.75 203.84C280.75 203.6 280.643 203.48 280.43 203.48H278.51C278.376 203.48 278.283 203.453 278.23 203.4C278.176 203.347 278.15 203.24 278.15 203.08V201.52C278.15 201.36 278.176 201.253 278.23 201.2C278.283 201.147 278.39 201.12 278.55 201.12H280.51C280.67 201.12 280.763 201.08 280.79 201C280.843 200.92 280.87 200.787 280.87 200.6L281.07 197.32C281.07 197.08 281.176 196.96 281.39 196.96H284.15C284.256 196.96 284.35 197 284.43 197.08C284.536 197.133 284.576 197.213 284.55 197.32L284.39 200.6C284.363 200.813 284.363 200.96 284.39 201.04C284.443 201.093 284.536 201.12 284.67 201.12H288.95C289.136 201.12 289.243 201.147 289.27 201.2C289.323 201.227 289.35 201.347 289.35 201.56V203.08C289.35 203.213 289.31 203.32 289.23 203.4C289.176 203.453 289.07 203.48 288.91 203.48H284.67C284.536 203.48 284.43 203.52 284.35 203.6C284.296 203.653 284.27 203.773 284.27 203.96C284.243 204.76 284.216 205.573 284.19 206.4C284.163 207.227 284.136 208.067 284.11 208.92C284.11 209.96 284.123 211.027 284.15 212.12C284.176 213.187 284.31 214.213 284.55 215.2C284.71 215.893 284.976 216.413 285.35 216.76C285.75 217.08 286.35 217.24 287.15 217.24C287.496 217.24 287.843 217.2 288.19 217.12C288.563 217.013 288.896 216.907 289.19 216.8C289.43 216.667 289.576 216.627 289.63 216.68C289.71 216.707 289.776 216.813 289.83 217L290.35 218.68C290.43 218.84 290.403 218.973 290.27 219.08C290.163 219.187 289.95 219.307 289.63 219.44C289.336 219.547 288.99 219.653 288.59 219.76C288.19 219.84 287.79 219.907 287.39 219.96C287.016 219.987 286.696 220 286.43 220ZM292.507 216.28C292.534 216.093 292.601 216.013 292.707 216.04C292.841 216.067 292.974 216.12 293.107 216.2C293.534 216.44 294.067 216.653 294.707 216.84C295.347 217.027 295.987 217.173 296.627 217.28C297.294 217.387 297.867 217.44 298.347 217.44C299.041 217.44 299.681 217.347 300.267 217.16C300.854 216.947 301.334 216.613 301.707 216.16C302.081 215.707 302.267 215.133 302.267 214.44C302.267 213.587 301.934 212.973 301.267 212.6C300.601 212.2 299.494 211.893 297.947 211.68C296.961 211.52 296.027 211.267 295.147 210.92C294.294 210.573 293.601 210.053 293.067 209.36C292.534 208.667 292.267 207.747 292.267 206.6C292.267 205.347 292.587 204.307 293.227 203.48C293.894 202.627 294.747 201.987 295.787 201.56C296.854 201.133 297.987 200.92 299.187 200.92C300.147 200.92 301.187 201.053 302.307 201.32C303.454 201.587 304.361 201.947 305.027 202.4C305.187 202.507 305.267 202.6 305.267 202.68C305.294 202.733 305.281 202.827 305.227 202.96L304.587 204.84C304.507 205.107 304.321 205.16 304.027 205C303.494 204.653 302.774 204.347 301.867 204.08C300.961 203.787 300.067 203.64 299.187 203.64C298.174 203.64 297.334 203.893 296.667 204.4C296.027 204.907 295.707 205.533 295.707 206.28C295.707 207.107 296.041 207.693 296.707 208.04C297.401 208.387 298.374 208.653 299.627 208.84C300.454 208.973 301.214 209.147 301.907 209.36C302.627 209.547 303.267 209.827 303.827 210.2C304.387 210.573 304.814 211.067 305.107 211.68C305.427 212.293 305.587 213.093 305.587 214.08C305.587 215.253 305.361 216.227 304.907 217C304.481 217.773 303.907 218.4 303.187 218.88C302.467 219.36 301.667 219.707 300.787 219.92C299.934 220.107 299.081 220.2 298.227 220.2C297.801 220.2 297.214 220.147 296.467 220.04C295.747 219.933 295.014 219.773 294.267 219.56C293.521 219.32 292.894 219.04 292.387 218.72C292.281 218.64 292.201 218.573 292.147 218.52C292.094 218.44 292.081 218.347 292.107 218.24L292.507 216.28Z" fill="url(#paint6_angular_105_3)"/>
</g>
</g>
<defs>
<filter id="filter0_d_105_3" x="0" y="0" width="508" height="508" filterUnits="userSpaceOnUse" color-interpolation-filters="sRGB">
<feFlood flood-opacity="0" result="BackgroundImageFix"/>
<feColorMatrix in="SourceAlpha" type="matrix" values="0 0 0 0 0 0 0 0 0 0 0 0 0 0 0 0 0 0 127 0" result="hardAlpha"/>
<feOffset dy="4"/>
<feGaussianBlur stdDeviation="2"/>
<feComposite in2="hardAlpha" operator="out"/>
<feColorMatrix type="matrix" values="0 0 0 0 0 0 0 0 0 0 0 0 0 0 0 0 0 0 0.25 0"/>
<feBlend mode="normal" in2="BackgroundImageFix" result="effect1_dropShadow_105_3"/>
<feBlend mode="normal" in="SourceGraphic" in2="effect1_dropShadow_105_3" result="shape"/>
</filter>
<filter id="filter1_i_105_3" x="204" y="151.96" width="101.587" height="72.28" filterUnits="userSpaceOnUse" color-interpolation-filters="sRGB">
<feFlood flood-opacity="0" result="BackgroundImageFix"/>
<feBlend mode="normal" in="SourceGraphic" in2="BackgroundImageFix" result="shape"/>
<feColorMatrix in="SourceAlpha" type="matrix" values="0 0 0 0 0 0 0 0 0 0 0 0 0 0 0 0 0 0 127 0" result="hardAlpha"/>
<feOffset dy="4"/>
<feGaussianBlur stdDeviation="2"/>
<feComposite in2="hardAlpha" operator="arithmetic" k2="-1" k3="1"/>
<feColorMatrix type="matrix" values="0 0 0 0 0 0 0 0 0 0 0 0 0 0 0 0 0 0 0.25 0"/>
<feBlend mode="normal" in2="shape" result="effect1_innerShadow_105_3"/>
</filter>
<radialGradient id="paint0_radial_105_3" cx="0" cy="0" r="1" gradientUnits="userSpaceOnUse" gradientTransform="translate(254 195.5) rotate(90) scale(288.5 286.655)">
<stop offset="0.00520833" stop-color="#B0F9E5"/>
<stop offset="0.552083" stop-color="#6FA798"/>
<stop offset="1" stop-color="#7688A9"/>
</radialGradient>
<radialGradient id="paint1_radial_105_3" cx="0" cy="0" r="1" gradientUnits="userSpaceOnUse" gradientTransform="translate(144 156) rotate(9.8425) scale(210.6 263.632)">
<stop offset="0.15625" stop-color="#624710"/>
<stop offset="1" stop-color="#AA8239" stop-opacity="0.4"/>
</radialGradient>
<linearGradient id="paint2_linear_105_3" x1="129.639" y1="153.5" x2="129.639" y2="357" gradientUnits="userSpaceOnUse">
<stop stop-color="#553700"/>
<stop offset="1" stop-color="#AA8239"/>
</linearGradient>
<linearGradient id="paint3_linear_105_3" x1="256.709" y1="241.5" x2="256.709" y2="399.5" gradientUnits="userSpaceOnUse">
<stop stop-color="#AA8239" stop-opacity="0"/>
<stop offset="0.46875" stop-color="#AA8239"/>
<stop offset="0.828125" stop-color="#553700" stop-opacity="0.95"/>
</linearGradient>
<linearGradient id="paint4_linear_105_3" x1="365" y1="237" x2="365" y2="400" gradientUnits="userSpaceOnUse">
<stop offset="0.197917" stop-color="#AA8239" stop-opacity="0"/>
<stop offset="0.46875" stop-color="#AA8239"/>
<stop offset="0.828125" stop-color="#553700" stop-opacity="0.95"/>
</linearGradient>
<linearGradient id="paint5_linear_105_3" x1="344.5" y1="213" x2="344.5" y2="400" gradientUnits="userSpaceOnUse">
<stop offset="0.526042" stop-color="#AA8239" stop-opacity="0"/>
<stop offset="0.71875" stop-color="#AA8239"/>
<stop offset="0.828125" stop-color="#553700" stop-opacity="0.95"/>
</linearGradient>
<radialGradient id="paint6_angular_105_3" cx="0" cy="0" r="1" gradientUnits="userSpaceOnUse" gradientTransform="translate(263 162.5) rotate(-90) scale(12.5 138.636)">
<stop stop-color="#5B2405"/>
<stop offset="0.000858086" stop-color="#5B2405"/>
<stop offset="0.9375" stop-color="#803C39"/>
</radialGradient>
<clipPath id="clip0_105_3">
<rect width="500" height="500" fill="white" transform="translate(4)"/>
</clipPath>
</defs>
</svg>
