<svg width="508" height="508" viewBox="0 0 508 508" fill="none" xmlns="http://www.w3.org/2000/svg">
<g clip-path="url(#clip0_105_3)" filter="url(#filter0_d_105_3)">
<rect width="500" height="500" transform="translate(4)" fill="white" fill-opacity="0.1"/>
<ellipse cx="254" cy="249.5" rx="233" ry="234.5" fill="url(#paint0_radial_105_3)"/>
<path d="M130.5 166.5C133.5 151.5 138.5 147 147.5 136.5" stroke="#634710" stroke-width="6"/>
<path d="M252 238C276.5 311.5 236.487 365.505 134.5 356.5" stroke="#AA8239" stroke-width="4" stroke-linecap="round"/>
<path fill-rule="evenodd" clip-rule="evenodd" d="M358.238 289.023C380.467 267.574 394 239.163 394 208C394 141.174 331.768 87 255 87C202.701 87 157.148 112.143 133.423 149.301C132.676 154.168 132.217 159.116 132.06 164.131C151.902 122.66 199.044 93 255 93C329.262 93 388 145.242 388 208C388 243.164 369.559 275.027 340.28 296.248C346.465 294.175 352.461 291.758 358.238 289.023Z" fill="url(#paint1_radial_105_3)"/>
<path d="M136 153.5C120.023 183.534 118.082 222.085 136 357" stroke="url(#paint2_linear_105_3)" stroke-opacity="0.95" stroke-width="8"/>
<path d="M130 167C137.704 150.785 141.867 143.584 149 134" stroke="#5E430D" stroke-width="6"/>
<path d="M253 241.5C261.315 270.693 264.351 293.419 253 399.5" stroke="url(#paint3_linear_105_3)" stroke-opacity="0.8" stroke-width="4"/>
<path d="M389 237C348.279 292.169 339.4 339.552 341.221 400" stroke="url(#paint4_linear_105_3)" stroke-opacity="0.8" stroke-width="4" stroke-linecap="round"/>
<path d="M340.182 400.069C340.22 401.173 341.146 402.037 342.25 401.999C343.354 401.961 344.218 401.035 344.179 399.931L340.182 400.069ZM344.179 399.931C342.024 337.638 342.215 299.377 349.992 213.18L346.008 212.82C338.216 299.189 338.021 337.616 340.182 400.069L344.179 399.931Z" fill="url(#paint5_linear_105_3)" fill-opacity="0.8"/>
<g filter="url(#filter1_i_105_3)">
<path d="M159.4 184.92C161.133 184.92 162.6 185.16 163.8 185.64C163.96 185.72 164.067 185.8 164.12 185.88C164.2 185.96 164.213 186.067 164.16 186.2L163.68 188.04C163.627 188.2 163.56 188.293 163.48 188.32C163.427 188.347 163.32 188.333 163.16 188.28C162.68 188.12 162.16 188.013 161.6 187.96C161.04 187.88 160.547 187.84 160.12 187.84C159.693 187.84 159.28 187.88 158.88 187.96C158.48 188.013 158.12 188.08 157.8 188.16C157.507 188.24 157.293 188.32 157.16 188.4C157.027 188.48 156.893 188.573 156.76 188.68C156.627 188.787 156.56 189.027 156.56 189.4V203.44C156.56 203.68 156.52 203.84 156.44 203.92C156.36 203.973 156.24 204 156.08 204H153.36C153.28 204 153.2 203.973 153.12 203.92C153.04 203.867 153 203.733 153 203.52V187.28C153 186.88 153.053 186.613 153.16 186.48C153.267 186.347 153.44 186.227 153.68 186.12C154.453 185.747 155.373 185.453 156.44 185.24C157.533 185.027 158.52 184.92 159.4 184.92ZM165.723 194.52C165.723 193.267 165.843 192.067 166.083 190.92C166.35 189.773 166.776 188.747 167.363 187.84C167.976 186.907 168.803 186.187 169.843 185.68C170.883 185.147 172.216 184.88 173.843 184.88C175.523 184.88 176.856 185.12 177.843 185.6C178.856 186.08 179.616 186.72 180.123 187.52C180.656 188.32 181.003 189.2 181.163 190.16C181.323 191.12 181.403 192.08 181.403 193.04C181.403 194.08 181.296 194.747 181.083 195.04C180.87 195.307 180.55 195.44 180.123 195.44H169.683C169.576 195.44 169.483 195.467 169.403 195.52C169.323 195.573 169.283 195.72 169.283 195.96C169.31 197.053 169.51 198.027 169.883 198.88C170.283 199.733 170.87 200.413 171.643 200.92C172.443 201.4 173.43 201.64 174.603 201.64C175.51 201.64 176.416 201.52 177.323 201.28C178.23 201.013 178.95 200.733 179.483 200.44C179.75 200.307 179.95 200.227 180.083 200.2C180.243 200.173 180.39 200.307 180.523 200.6L181.163 201.8C181.27 201.987 181.296 202.133 181.243 202.24C181.19 202.32 181.056 202.427 180.843 202.56C179.963 203.12 178.896 203.547 177.643 203.84C176.416 204.107 175.163 204.24 173.883 204.24C172.203 204.24 170.83 204 169.763 203.52C168.723 203.013 167.896 202.32 167.283 201.44C166.696 200.533 166.283 199.493 166.043 198.32C165.83 197.147 165.723 195.88 165.723 194.52ZM177.803 192.48C177.803 191.573 177.683 190.76 177.443 190.04C177.23 189.32 176.83 188.747 176.243 188.32C175.683 187.867 174.856 187.64 173.763 187.64C172.963 187.64 172.283 187.8 171.723 188.12C171.163 188.413 170.71 188.8 170.363 189.28C170.043 189.76 169.803 190.293 169.643 190.88C169.483 191.44 169.376 191.987 169.323 192.52C169.296 192.84 169.296 193.053 169.323 193.16C169.376 193.24 169.51 193.28 169.723 193.28H177.203C177.443 193.28 177.603 193.24 177.683 193.16C177.79 193.08 177.83 192.853 177.803 192.48ZM191.719 204C190.012 204 188.745 203.64 187.919 202.92C187.092 202.2 186.559 201.187 186.319 199.88C186.079 198.76 185.945 197.587 185.919 196.36C185.919 195.133 185.919 193.88 185.919 192.6C185.919 191.747 185.932 190.947 185.959 190.2C185.985 189.453 186.012 188.667 186.039 187.84C186.039 187.6 185.932 187.48 185.719 187.48H183.799C183.665 187.48 183.572 187.453 183.519 187.4C183.465 187.347 183.439 187.24 183.439 187.08V185.52C183.439 185.36 183.465 185.253 183.519 185.2C183.572 185.147 183.679 185.12 183.839 185.12H185.799C185.959 185.12 186.052 185.08 186.079 185C186.132 184.92 186.159 184.787 186.159 184.6L186.359 181.32C186.359 181.08 186.465 180.96 186.679 180.96H189.439C189.545 180.96 189.639 181 189.719 181.08C189.825 181.133 189.865 181.213 189.839 181.32L189.679 184.6C189.652 184.813 189.652 184.96 189.679 185.04C189.732 185.093 189.825 185.12 189.959 185.12H194.239C194.425 185.12 194.532 185.147 194.559 185.2C194.612 185.227 194.639 185.347 194.639 185.56V187.08C194.639 187.213 194.599 187.32 194.519 187.4C194.465 187.453 194.359 187.48 194.199 187.48H189.959C189.825 187.48 189.719 187.52 189.639 187.6C189.585 187.653 189.559 187.773 189.559 187.96C189.532 188.76 189.505 189.573 189.479 190.4C189.452 191.227 189.425 192.067 189.399 192.92C189.399 193.96 189.412 195.027 189.439 196.12C189.465 197.187 189.599 198.213 189.839 199.2C189.999 199.893 190.265 200.413 190.639 200.76C191.039 201.08 191.639 201.24 192.439 201.24C192.785 201.24 193.132 201.2 193.479 201.12C193.852 201.013 194.185 200.907 194.479 200.8C194.719 200.667 194.865 200.627 194.919 200.68C194.999 200.707 195.065 200.813 195.119 201L195.639 202.68C195.719 202.84 195.692 202.973 195.559 203.08C195.452 203.187 195.239 203.307 194.919 203.44C194.625 203.547 194.279 203.653 193.879 203.76C193.479 203.84 193.079 203.907 192.679 203.96C192.305 203.987 191.985 204 191.719 204ZM206.116 204.16C204.036 204.16 202.423 203.76 201.276 202.96C200.156 202.16 199.37 201.08 198.916 199.72C198.49 198.333 198.276 196.827 198.276 195.2C198.276 194.027 198.29 192.853 198.316 191.68C198.37 190.507 198.436 189.4 198.516 188.36C198.596 187.32 198.663 186.453 198.716 185.76C198.743 185.44 198.796 185.253 198.876 185.2C198.983 185.147 199.17 185.12 199.436 185.12H201.636C201.903 185.12 202.09 185.133 202.196 185.16C202.303 185.187 202.33 185.36 202.276 185.68C202.276 185.84 202.25 186.253 202.196 186.92C202.17 187.587 202.13 188.4 202.076 189.36C202.023 190.32 201.983 191.333 201.956 192.4C201.93 193.44 201.916 194.427 201.916 195.36C201.916 197.253 202.236 198.72 202.876 199.76C203.543 200.773 204.636 201.28 206.156 201.28C206.343 201.28 206.623 201.267 206.996 201.24C207.37 201.213 207.756 201.16 208.156 201.08C208.556 201 208.89 200.88 209.156 200.72C209.423 200.56 209.556 200.347 209.556 200.08V185.6C209.556 185.493 209.57 185.387 209.596 185.28C209.623 185.173 209.69 185.12 209.796 185.12H212.676C212.756 185.12 212.836 185.147 212.916 185.2C213.023 185.227 213.076 185.32 213.076 185.48V202.04C213.076 202.36 212.983 202.6 212.796 202.76C212.636 202.893 212.29 203.053 211.756 203.24C211.49 203.32 211.036 203.44 210.396 203.6C209.756 203.733 209.05 203.867 208.276 204C207.503 204.107 206.783 204.16 206.116 204.16ZM223.892 184.92C225.626 184.92 227.092 185.16 228.292 185.64C228.452 185.72 228.559 185.8 228.612 185.88C228.692 185.96 228.706 186.067 228.652 186.2L228.172 188.04C228.119 188.2 228.052 188.293 227.972 188.32C227.919 188.347 227.812 188.333 227.652 188.28C227.172 188.12 226.652 188.013 226.092 187.96C225.532 187.88 225.039 187.84 224.612 187.84C224.186 187.84 223.772 187.88 223.372 187.96C222.972 188.013 222.612 188.08 222.292 188.16C221.999 188.24 221.786 188.32 221.652 188.4C221.519 188.48 221.386 188.573 221.252 188.68C221.119 188.787 221.052 189.027 221.052 189.4V203.44C221.052 203.68 221.012 203.84 220.932 203.92C220.852 203.973 220.732 204 220.572 204H217.852C217.772 204 217.692 203.973 217.612 203.92C217.532 203.867 217.492 203.733 217.492 203.52V187.28C217.492 186.88 217.546 186.613 217.652 186.48C217.759 186.347 217.932 186.227 218.172 186.12C218.946 185.747 219.866 185.453 220.932 185.24C222.026 185.027 223.012 184.92 223.892 184.92ZM231.535 204C231.242 204 231.095 203.88 231.095 203.64C231.095 200.813 231.095 198 231.095 195.2C231.095 192.373 231.095 189.56 231.095 186.76C231.095 186.547 231.162 186.387 231.295 186.28C231.455 186.147 231.749 186.013 232.175 185.88C232.522 185.773 233.029 185.64 233.695 185.48C234.389 185.32 235.122 185.187 235.895 185.08C236.695 184.947 237.429 184.88 238.095 184.88C240.202 184.88 241.815 185.28 242.935 186.08C244.055 186.88 244.829 187.973 245.255 189.36C245.682 190.72 245.895 192.227 245.895 193.88C245.895 195.053 245.869 196.24 245.815 197.44C245.789 198.613 245.735 199.72 245.655 200.76C245.602 201.773 245.535 202.64 245.455 203.36C245.429 203.68 245.375 203.867 245.295 203.92C245.215 203.973 245.042 204 244.775 204H242.535C242.269 204 242.082 203.973 241.975 203.92C241.895 203.84 241.869 203.68 241.895 203.44C241.895 203.28 241.922 202.853 241.975 202.16C242.029 201.44 242.082 200.587 242.135 199.6C242.189 198.613 242.229 197.613 242.255 196.6C242.282 195.56 242.295 194.64 242.295 193.84C242.295 192.427 242.135 191.28 241.815 190.4C241.522 189.493 241.055 188.84 240.415 188.44C239.802 188.013 239.002 187.8 238.015 187.8C237.509 187.8 237.029 187.84 236.575 187.92C236.122 188 235.709 188.107 235.335 188.24C235.149 188.267 234.989 188.36 234.855 188.52C234.722 188.653 234.655 188.907 234.655 189.28C234.655 190.693 234.655 192.2 234.655 193.8C234.655 195.373 234.655 197 234.655 198.68C234.655 200.333 234.655 201.987 234.655 203.64C234.655 203.88 234.549 204 234.335 204H231.535ZM265.884 184.92C267.618 184.92 269.084 185.16 270.284 185.64C270.444 185.72 270.551 185.8 270.604 185.88C270.684 185.96 270.698 186.067 270.644 186.2L270.164 188.04C270.111 188.2 270.044 188.293 269.964 188.32C269.911 188.347 269.804 188.333 269.644 188.28C269.164 188.12 268.644 188.013 268.084 187.96C267.524 187.88 267.031 187.84 266.604 187.84C266.178 187.84 265.764 187.88 265.364 187.96C264.964 188.013 264.604 188.08 264.284 188.16C263.991 188.24 263.778 188.32 263.644 188.4C263.511 188.48 263.378 188.573 263.244 188.68C263.111 188.787 263.044 189.027 263.044 189.4V203.44C263.044 203.68 263.004 203.84 262.924 203.92C262.844 203.973 262.724 204 262.564 204H259.844C259.764 204 259.684 203.973 259.604 203.92C259.524 203.867 259.484 203.733 259.484 203.52V187.28C259.484 186.88 259.538 186.613 259.644 186.48C259.751 186.347 259.924 186.227 260.164 186.12C260.938 185.747 261.858 185.453 262.924 185.24C264.018 185.027 265.004 184.92 265.884 184.92ZM272.208 194.52C272.208 193.267 272.328 192.067 272.568 190.92C272.834 189.773 273.261 188.747 273.848 187.84C274.461 186.907 275.288 186.187 276.328 185.68C277.368 185.147 278.701 184.88 280.328 184.88C282.008 184.88 283.341 185.12 284.328 185.6C285.341 186.08 286.101 186.72 286.608 187.52C287.141 188.32 287.488 189.2 287.648 190.16C287.808 191.12 287.888 192.08 287.888 193.04C287.888 194.08 287.781 194.747 287.568 195.04C287.354 195.307 287.034 195.44 286.608 195.44H276.168C276.061 195.44 275.968 195.467 275.888 195.52C275.808 195.573 275.768 195.72 275.768 195.96C275.794 197.053 275.994 198.027 276.368 198.88C276.768 199.733 277.354 200.413 278.128 200.92C278.928 201.4 279.914 201.64 281.088 201.64C281.994 201.64 282.901 201.52 283.808 201.28C284.714 201.013 285.434 200.733 285.968 200.44C286.234 200.307 286.434 200.227 286.568 200.2C286.728 200.173 286.874 200.307 287.008 200.6L287.648 201.8C287.754 201.987 287.781 202.133 287.728 202.24C287.674 202.32 287.541 202.427 287.328 202.56C286.448 203.12 285.381 203.547 284.128 203.84C282.901 204.107 281.648 204.24 280.368 204.24C278.688 204.24 277.314 204 276.248 203.52C275.208 203.013 274.381 202.32 273.768 201.44C273.181 200.533 272.768 199.493 272.528 198.32C272.314 197.147 272.208 195.88 272.208 194.52ZM284.288 192.48C284.288 191.573 284.168 190.76 283.928 190.04C283.714 189.32 283.314 188.747 282.728 188.32C282.168 187.867 281.341 187.64 280.248 187.64C279.448 187.64 278.768 187.8 278.208 188.12C277.648 188.413 277.194 188.8 276.848 189.28C276.528 189.76 276.288 190.293 276.128 190.88C275.968 191.44 275.861 191.987 275.808 192.52C275.781 192.84 275.781 193.053 275.808 193.16C275.861 193.24 275.994 193.28 276.208 193.28H283.688C283.928 193.28 284.088 193.24 284.168 193.16C284.274 193.08 284.314 192.853 284.288 192.48ZM290.843 200.28C290.87 200.093 290.936 200.013 291.043 200.04C291.176 200.067 291.31 200.12 291.443 200.2C291.87 200.44 292.403 200.653 293.043 200.84C293.683 201.027 294.323 201.173 294.963 201.28C295.63 201.387 296.203 201.44 296.683 201.44C297.376 201.44 298.016 201.347 298.603 201.16C299.19 200.947 299.67 200.613 300.043 200.16C300.416 199.707 300.603 199.133 300.603 198.44C300.603 197.587 300.27 196.973 299.603 196.6C298.936 196.2 297.83 195.893 296.283 195.68C295.296 195.52 294.363 195.267 293.483 194.92C292.63 194.573 291.936 194.053 291.403 193.36C290.87 192.667 290.603 191.747 290.603 190.6C290.603 189.347 290.923 188.307 291.563 187.48C292.23 186.627 293.083 185.987 294.123 185.56C295.19 185.133 296.323 184.92 297.523 184.92C298.483 184.92 299.523 185.053 300.643 185.32C301.79 185.587 302.696 185.947 303.363 186.4C303.523 186.507 303.603 186.6 303.603 186.68C303.63 186.733 303.616 186.827 303.563 186.96L302.923 188.84C302.843 189.107 302.656 189.16 302.363 189C301.83 188.653 301.11 188.347 300.203 188.08C299.296 187.787 298.403 187.64 297.523 187.64C296.51 187.64 295.67 187.893 295.003 188.4C294.363 188.907 294.043 189.533 294.043 190.28C294.043 191.107 294.376 191.693 295.043 192.04C295.736 192.387 296.71 192.653 297.963 192.84C298.79 192.973 299.55 193.147 300.243 193.36C300.963 193.547 301.603 193.827 302.163 194.2C302.723 194.573 303.15 195.067 303.443 195.68C303.763 196.293 303.923 197.093 303.923 198.08C303.923 199.253 303.696 200.227 303.243 201C302.816 201.773 302.243 202.4 301.523 202.88C300.803 203.36 300.003 203.707 299.123 203.92C298.27 204.107 297.416 204.2 296.563 204.2C296.136 204.2 295.55 204.147 294.803 204.04C294.083 203.933 293.35 203.773 292.603 203.56C291.856 203.32 291.23 203.04 290.723 202.72C290.616 202.64 290.536 202.573 290.483 202.52C290.43 202.44 290.416 202.347 290.443 202.24L290.843 200.28ZM315.14 204.16C313.06 204.16 311.446 203.76 310.3 202.96C309.18 202.16 308.393 201.08 307.94 199.72C307.513 198.333 307.3 196.827 307.3 195.2C307.3 194.027 307.313 192.853 307.34 191.68C307.393 190.507 307.46 189.4 307.54 188.36C307.62 187.32 307.686 186.453 307.74 185.76C307.766 185.44 307.82 185.253 307.9 185.2C308.006 185.147 308.193 185.12 308.46 185.12H310.66C310.926 185.12 311.113 185.133 311.22 185.16C311.326 185.187 311.353 185.36 311.3 185.68C311.3 185.84 311.273 186.253 311.22 186.92C311.193 187.587 311.153 188.4 311.1 189.36C311.046 190.32 311.006 191.333 310.98 192.4C310.953 193.44 310.94 194.427 310.94 195.36C310.94 197.253 311.26 198.72 311.9 199.76C312.566 200.773 313.66 201.28 315.18 201.28C315.366 201.28 315.646 201.267 316.02 201.24C316.393 201.213 316.78 201.16 317.18 201.08C317.58 201 317.913 200.88 318.18 200.72C318.446 200.56 318.58 200.347 318.58 200.08V185.6C318.58 185.493 318.593 185.387 318.62 185.28C318.646 185.173 318.713 185.12 318.82 185.12H321.7C321.78 185.12 321.86 185.147 321.94 185.2C322.046 185.227 322.1 185.32 322.1 185.48V202.04C322.1 202.36 322.006 202.6 321.82 202.76C321.66 202.893 321.313 203.053 320.78 203.24C320.513 203.32 320.06 203.44 319.42 203.6C318.78 203.733 318.073 203.867 317.3 204C316.526 204.107 315.806 204.16 315.14 204.16ZM326.916 203.64V176.04C326.916 175.8 327.049 175.68 327.316 175.68H330.076C330.342 175.68 330.476 175.8 330.476 176.04V203.64C330.476 203.88 330.342 204 330.076 204H327.316C327.049 204 326.916 203.88 326.916 203.64ZM341.914 204C340.207 204 338.941 203.64 338.114 202.92C337.287 202.2 336.754 201.187 336.514 199.88C336.274 198.76 336.141 197.587 336.114 196.36C336.114 195.133 336.114 193.88 336.114 192.6C336.114 191.747 336.127 190.947 336.154 190.2C336.181 189.453 336.207 188.667 336.234 187.84C336.234 187.6 336.127 187.48 335.914 187.48H333.994C333.861 187.48 333.767 187.453 333.714 187.4C333.661 187.347 333.634 187.24 333.634 187.08V185.52C333.634 185.36 333.661 185.253 333.714 185.2C333.767 185.147 333.874 185.12 334.034 185.12H335.994C336.154 185.12 336.247 185.08 336.274 185C336.327 184.92 336.354 184.787 336.354 184.6L336.554 181.32C336.554 181.08 336.661 180.96 336.874 180.96H339.634C339.741 180.96 339.834 181 339.914 181.08C340.021 181.133 340.061 181.213 340.034 181.32L339.874 184.6C339.847 184.813 339.847 184.96 339.874 185.04C339.927 185.093 340.021 185.12 340.154 185.12H344.434C344.621 185.12 344.727 185.147 344.754 185.2C344.807 185.227 344.834 185.347 344.834 185.56V187.08C344.834 187.213 344.794 187.32 344.714 187.4C344.661 187.453 344.554 187.48 344.394 187.48H340.154C340.021 187.48 339.914 187.52 339.834 187.6C339.781 187.653 339.754 187.773 339.754 187.96C339.727 188.76 339.701 189.573 339.674 190.4C339.647 191.227 339.621 192.067 339.594 192.92C339.594 193.96 339.607 195.027 339.634 196.12C339.661 197.187 339.794 198.213 340.034 199.2C340.194 199.893 340.461 200.413 340.834 200.76C341.234 201.08 341.834 201.24 342.634 201.24C342.981 201.24 343.327 201.2 343.674 201.12C344.047 201.013 344.381 200.907 344.674 200.8C344.914 200.667 345.061 200.627 345.114 200.68C345.194 200.707 345.261 200.813 345.314 201L345.834 202.68C345.914 202.84 345.887 202.973 345.754 203.08C345.647 203.187 345.434 203.307 345.114 203.44C344.821 203.547 344.474 203.653 344.074 203.76C343.674 203.84 343.274 203.907 342.874 203.96C342.501 203.987 342.181 204 341.914 204ZM347.992 200.28C348.018 200.093 348.085 200.013 348.192 200.04C348.325 200.067 348.458 200.12 348.592 200.2C349.018 200.44 349.552 200.653 350.192 200.84C350.832 201.027 351.472 201.173 352.112 201.28C352.778 201.387 353.352 201.44 353.832 201.44C354.525 201.44 355.165 201.347 355.752 201.16C356.338 200.947 356.818 200.613 357.192 200.16C357.565 199.707 357.752 199.133 357.752 198.44C357.752 197.587 357.418 196.973 356.752 196.6C356.085 196.2 354.978 195.893 353.432 195.68C352.445 195.52 351.512 195.267 350.632 194.92C349.778 194.573 349.085 194.053 348.552 193.36C348.018 192.667 347.752 191.747 347.752 190.6C347.752 189.347 348.072 188.307 348.712 187.48C349.378 186.627 350.232 185.987 351.272 185.56C352.338 185.133 353.472 184.92 354.672 184.92C355.632 184.92 356.672 185.053 357.792 185.32C358.938 185.587 359.845 185.947 360.512 186.4C360.672 186.507 360.752 186.6 360.752 186.68C360.778 186.733 360.765 186.827 360.712 186.96L360.072 188.84C359.992 189.107 359.805 189.16 359.512 189C358.978 188.653 358.258 188.347 357.352 188.08C356.445 187.787 355.552 187.64 354.672 187.64C353.658 187.64 352.818 187.893 352.152 188.4C351.512 188.907 351.192 189.533 351.192 190.28C351.192 191.107 351.525 191.693 352.192 192.04C352.885 192.387 353.858 192.653 355.112 192.84C355.938 192.973 356.698 193.147 357.392 193.36C358.112 193.547 358.752 193.827 359.312 194.2C359.872 194.573 360.298 195.067 360.592 195.68C360.912 196.293 361.072 197.093 361.072 198.08C361.072 199.253 360.845 200.227 360.392 201C359.965 201.773 359.392 202.4 358.672 202.88C357.952 203.36 357.152 203.707 356.272 203.92C355.418 204.107 354.565 204.2 353.712 204.2C353.285 204.2 352.698 204.147 351.952 204.04C351.232 203.933 350.498 203.773 349.752 203.56C349.005 203.32 348.378 203.04 347.872 202.72C347.765 202.64 347.685 202.573 347.632 202.52C347.578 202.44 347.565 202.347 347.592 202.24L347.992 200.28Z" fill="#5B2405"/>
</g>
</g>
<defs>
<filter id="filter0_d_105_3" x="0" y="0" width="508" height="508" filterUnits="userSpaceOnUse" color-interpolation-filters="sRGB">
<feFlood flood-opacity="0" result="BackgroundImageFix"/>
<feColorMatrix in="SourceAlpha" type="matrix" values="0 0 0 0 0 0 0 0 0 0 0 0 0 0 0 0 0 0 127 0" result="hardAlpha"/>
<feOffset dy="4"/>
<feGaussianBlur stdDeviation="2"/>
<feComposite in2="hardAlpha" operator="out"/>
<feColorMatrix type="matrix" values="0 0 0 0 0 0 0 0 0 0 0 0 0 0 0 0 0 0 0.25 0"/>
<feBlend mode="normal" in2="BackgroundImageFix" result="effect1_dropShadow_105_3"/>
<feBlend mode="normal" in="SourceGraphic" in2="effect1_dropShadow_105_3" result="shape"/>
</filter>
<filter id="filter1_i_105_3" x="153" y="175.68" width="208.072" height="32.56" filterUnits="userSpaceOnUse" color-interpolation-filters="sRGB">
<feFlood flood-opacity="0" result="BackgroundImageFix"/>
<feBlend mode="normal" in="SourceGraphic" in2="BackgroundImageFix" result="shape"/>
<feColorMatrix in="SourceAlpha" type="matrix" values="0 0 0 0 0 0 0 0 0 0 0 0 0 0 0 0 0 0 127 0" result="hardAlpha"/>
<feOffset dy="4"/>
<feGaussianBlur stdDeviation="2"/>
<feComposite in2="hardAlpha" operator="arithmetic" k2="-1" k3="1"/>
<feColorMatrix type="matrix" values="0 0 0 0 0 0 0 0 0 0 0 0 0 0 0 0 0 0 0.25 0"/>
<feBlend mode="normal" in2="shape" result="effect1_innerShadow_105_3"/>
</filter>
<radialGradient id="paint0_radial_105_3" cx="0" cy="0" r="1" gradientUnits="userSpaceOnUse" gradientTransform="translate(254 195.5) rotate(90) scale(288.5 286.655)">
<stop offset="0.00520833" stop-color="#B0F9E5"/>
<stop offset="0.552083" stop-color="#6FA798"/>
<stop offset="1" stop-color="#7688A9"/>
</radialGradient>
<radialGradient id="paint1_radial_105_3" cx="0" cy="0" r="1" gradientUnits="userSpaceOnUse" gradientTransform="translate(144 156) rotate(9.8425) scale(210.6 263.632)">
<stop offset="0.15625" stop-color="#624710"/>
<stop offset="1" stop-color="#AA8239" stop-opacity="0.4"/>
</radialGradient>
<linearGradient id="paint2_linear_105_3" x1="129.639" y1="153.5" x2="129.639" y2="357" gradientUnits="userSpaceOnUse">
<stop stop-color="#553700"/>
<stop offset="1" stop-color="#AA8239"/>
</linearGradient>
<linearGradient id="paint3_linear_105_3" x1="256.709" y1="241.5" x2="256.709" y2="399.5" gradientUnits="userSpaceOnUse">
<stop stop-color="#AA8239" stop-opacity="0"/>
<stop offset="0.46875" stop-color="#AA8239"/>
<stop offset="0.828125" stop-color="#553700" stop-opacity="0.95"/>
</linearGradient>
<linearGradient id="paint4_linear_105_3" x1="365" y1="237" x2="365" y2="400" gradientUnits="userSpaceOnUse">
<stop offset="0.197917" stop-color="#AA8239" stop-opacity="0"/>
<stop offset="0.46875" stop-color="#AA8239"/>
<stop offset="0.828125" stop-color="#553700" stop-opacity="0.95"/>
</linearGradient>
<linearGradient id="paint5_linear_105_3" x1="344.5" y1="213" x2="344.5" y2="400" gradientUnits="userSpaceOnUse">
<stop offset="0.526042" stop-color="#AA8239" stop-opacity="0"/>
<stop offset="0.71875" stop-color="#AA8239"/>
<stop offset="0.828125" stop-color="#553700" stop-opacity="0.95"/>
</linearGradient>
<clipPath id="clip0_105_3">
<rect width="500" height="500" fill="white" transform="translate(4)"/>
</clipPath>
</defs>
</svg>
